<?xml version="1.0"?>
<svg xmlns="http://www.w3.org/2000/svg" height="229.04001" viewBox="0 0 458.50769 229.04001" width="458.50769" fill="#e1b144"><path d="m229.25385 175.18a60.43 60.43 0 1 1 60.42-60.43 60.49 60.49 0 0 1 -60.42 60.43zm0-108.849999a48.43 48.43 0 1 0 48.42 48.419999 48.47 48.47 0 0 0 -48.42-48.419999z" fill="#e1b144"/><path d="m191.08385 229.04h-122.430002a6 6 0 0 1 -5.2-3l-62.65000042-108.52a6 6 0 0 1 0-6l62.65000042-108.5199988a6 6 0 0 1 5.2-2.99999997h123.750002a6 6 0 0 1 1.93 11.67999977 108.84 108.84 0 0 0 -1.25 205.699999 6 6 0 0 1 -2 11.66zm-119.000002-12h92.860002a120.86 120.86 0 0 1 .69-204.999999h-93.520002l-59.19 102.479999z" fill="#e1b144"/><path d="m389.85385 229.04h-122.43a6 6 0 0 1 -2-11.66 108.84 108.84 0 0 0 -1.25-205.699999 6 6 0 0 1 1.93-11.67999977h123.75a6 6 0 0 1 5.2 2.99999997l62.65 108.5199988a6 6 0 0 1 0 6l-62.65 108.52a6 6 0 0 1 -5.2 3zm-96.32-12h92.86l59.19-102.52-59.19-102.519999h-93.55a120.86 120.86 0 0 1 .69 204.999999z" fill="#e1b144"/></svg>
