<svg width="755" height="83" viewBox="0 0 755 83" fill="none" xmlns="http://www.w3.org/2000/svg">
<g filter="url(#filter0_d_2_4)">
<mask id="path-1-outside-1_2_4" maskUnits="userSpaceOnUse" x="9" y="-3" width="739" height="66" fill="black">
<rect fill="white" x="9" y="-3" width="739" height="66"/>
<path d="M51.6318 59.2181C37.6963 59.2181 27.441 56.3497 20.8662 50.6131C15.051 45.5575 12.1434 38.6421 12.1434 29.8669C12.1434 21.0917 15.051 14.1632 20.8662 9.08147C27.441 3.37103 37.6963 0.515815 51.6318 0.515815C59.8045 0.515815 66.5628 1.45882 71.9065 3.34484C77.2502 5.20466 81.402 7.75864 84.362 11.0068C87.322 14.2549 89.2866 17.9746 90.2558 22.1657H65.384C62.8955 17.7912 58.3115 15.6039 51.6318 15.6039C45.9214 15.6039 41.7171 17.2542 39.0191 20.5547C36.8711 23.1742 35.7971 26.2783 35.7971 29.8669C35.7971 33.4556 36.8711 36.5597 39.0191 39.1791C41.7171 42.4797 45.9214 44.1299 51.6318 44.1299C58.3115 44.1299 62.8955 41.9296 65.384 37.5289H90.2558C89.2866 41.7462 87.322 45.479 84.362 48.7271C81.402 51.9752 77.2502 54.5423 71.9065 56.4283C66.5628 58.2881 59.8045 59.2181 51.6318 59.2181ZM140.055 59.2181C126.119 59.2181 115.864 56.3497 109.289 50.6131C103.474 45.5313 100.566 38.6029 100.566 29.8276C100.566 21.0786 103.474 14.1632 109.289 9.08147C115.864 3.34484 126.119 0.476523 140.055 0.476523C153.99 0.476523 164.245 3.34484 170.82 9.08147C176.635 14.1632 179.543 21.0786 179.543 29.8276C179.543 38.6029 176.635 45.5313 170.82 50.6131C164.245 56.3497 153.99 59.2181 140.055 59.2181ZM140.055 44.0906C145.765 44.0906 149.956 42.4535 152.628 39.1791C154.776 36.5335 155.85 33.4163 155.85 29.8276C155.85 26.239 154.776 23.1349 152.628 20.5154C149.956 17.2149 145.765 15.5646 140.055 15.5646C134.344 15.5646 130.14 17.2149 127.442 20.5154C125.294 23.1349 124.22 26.239 124.22 29.8276C124.22 33.4163 125.294 36.5335 127.442 39.1791C130.14 42.4535 134.344 44.0906 140.055 44.0906ZM229.342 59.2181C215.406 59.2181 205.151 56.3497 198.576 50.6131C192.761 45.5313 189.853 38.616 189.853 29.8669C189.853 21.0917 192.761 14.1632 198.576 9.08147C205.151 3.34484 215.406 0.476523 229.342 0.476523C237.279 0.476523 243.88 1.36714 249.145 3.14838C254.41 4.92962 258.536 7.36572 261.522 10.4567C264.534 13.5215 266.59 17.0577 267.691 21.0655H242.387C239.741 17.4245 235.393 15.6039 229.342 15.6039C223.631 15.6039 219.427 17.2411 216.729 20.5154C214.581 23.1611 213.507 26.2783 213.507 29.8669C213.507 33.4556 214.581 36.5597 216.729 39.1791C219.427 42.4535 223.631 44.0906 229.342 44.0906C233.952 44.0906 237.41 43.6977 239.715 42.9119C242.046 42.0998 243.749 41.0521 244.823 39.7685H235.589V29.8669H267.691V58.0393H257.868L255.864 52.5777C249.603 57.0046 240.763 59.2181 229.342 59.2181ZM366.408 58H338.275L306.409 19.8475V58H282.755V1.61599H310.888L342.754 39.5721V1.61599H366.408V58ZM471.451 58H447.483L442.178 48.7664H406.619L401.315 58H377.347L413.417 1.65528H435.381L471.451 58ZM434.202 34.8177L424.419 17.7257L414.596 34.8177H434.202ZM520.11 58H482.39V1.61599H520.11C535.539 1.61599 546.632 3.77705 553.391 8.09917C558.839 11.5831 561.943 16.3243 562.703 22.3229C563.043 24.9161 563.214 27.4177 563.214 29.8276C563.214 32.2114 563.043 34.7129 562.703 37.3324C562.388 39.9257 561.524 42.4535 560.109 44.9158C558.695 47.3519 556.442 49.5522 553.351 51.5168C550.286 53.4814 546.069 55.0531 540.699 56.2319C535.356 57.4106 528.493 58 520.11 58ZM517.871 44.0513C529.894 44.0513 536.691 41.0128 538.263 34.9356C538.682 33.2329 538.892 31.5303 538.892 29.8276C538.892 28.0988 538.669 26.3961 538.224 24.7197C537.805 23.017 536.888 21.4846 535.473 20.1225C534.085 18.7342 531.99 17.634 529.187 16.822C526.384 15.9838 522.612 15.5646 517.871 15.5646H506.044V44.0513H517.871ZM613.052 59.2181C599.116 59.2181 588.861 56.3497 582.286 50.6131C576.471 45.5313 573.563 38.6029 573.563 29.8276C573.563 21.0786 576.471 14.1632 582.286 9.08147C588.861 3.34484 599.116 0.476523 613.052 0.476523C626.987 0.476523 637.242 3.34484 643.817 9.08147C649.632 14.1632 652.54 21.0786 652.54 29.8276C652.54 38.6029 649.632 45.5313 643.817 50.6131C637.242 56.3497 626.987 59.2181 613.052 59.2181ZM613.052 44.0906C618.762 44.0906 622.953 42.4535 625.625 39.1791C627.773 36.5335 628.847 33.4163 628.847 29.8276C628.847 26.239 627.773 23.1349 625.625 20.5154C622.953 17.2149 618.762 15.5646 613.052 15.5646C607.341 15.5646 603.137 17.2149 600.439 20.5154C598.291 23.1349 597.217 26.239 597.217 29.8276C597.217 33.4163 598.291 36.5335 600.439 39.1791C603.137 42.4535 607.341 44.0906 613.052 44.0906ZM742.967 58H720.609C719.588 56.5855 718.867 54.7781 718.448 52.5777C718.082 50.8751 717.532 49.2117 716.798 47.5876C716.065 45.9374 714.794 44.5752 712.987 43.5013C711.206 42.4011 708.547 41.8117 705.011 41.7331H689.647V58H665.994V1.61599H704.46C713.655 1.61599 721.068 2.31015 726.7 3.69847C732.358 5.06059 736.483 7.22165 739.077 10.1816C741.67 13.1154 742.967 16.953 742.967 21.6942C742.967 25.6496 742.063 28.9763 740.255 31.6744C738.474 34.3724 735.645 36.5073 731.768 38.079C735.514 39.6244 737.937 41.4843 739.037 43.6584C740.164 45.8064 740.858 48.177 741.12 50.7703C741.382 53.0754 741.997 55.4853 742.967 58ZM689.647 27.8237L703.164 27.7845C706.936 27.7845 709.909 27.6142 712.083 27.2737C714.257 26.9331 715.855 26.4747 716.877 25.8984C717.924 25.296 718.592 24.6411 718.881 23.9338C719.169 23.2004 719.313 22.4538 719.313 21.6942C719.313 20.9346 719.169 20.188 718.881 19.4546C718.592 18.7211 717.924 18.0662 716.877 17.49C715.855 16.8875 714.257 16.416 712.083 16.0754C709.909 15.7349 706.936 15.5646 703.164 15.5646H689.647V27.8237Z"/>
</mask>
<path d="M51.6318 59.2181C37.6963 59.2181 27.441 56.3497 20.8662 50.6131C15.051 45.5575 12.1434 38.6421 12.1434 29.8669C12.1434 21.0917 15.051 14.1632 20.8662 9.08147C27.441 3.37103 37.6963 0.515815 51.6318 0.515815C59.8045 0.515815 66.5628 1.45882 71.9065 3.34484C77.2502 5.20466 81.402 7.75864 84.362 11.0068C87.322 14.2549 89.2866 17.9746 90.2558 22.1657H65.384C62.8955 17.7912 58.3115 15.6039 51.6318 15.6039C45.9214 15.6039 41.7171 17.2542 39.0191 20.5547C36.8711 23.1742 35.7971 26.2783 35.7971 29.8669C35.7971 33.4556 36.8711 36.5597 39.0191 39.1791C41.7171 42.4797 45.9214 44.1299 51.6318 44.1299C58.3115 44.1299 62.8955 41.9296 65.384 37.5289H90.2558C89.2866 41.7462 87.322 45.479 84.362 48.7271C81.402 51.9752 77.2502 54.5423 71.9065 56.4283C66.5628 58.2881 59.8045 59.2181 51.6318 59.2181ZM140.055 59.2181C126.119 59.2181 115.864 56.3497 109.289 50.6131C103.474 45.5313 100.566 38.6029 100.566 29.8276C100.566 21.0786 103.474 14.1632 109.289 9.08147C115.864 3.34484 126.119 0.476523 140.055 0.476523C153.99 0.476523 164.245 3.34484 170.82 9.08147C176.635 14.1632 179.543 21.0786 179.543 29.8276C179.543 38.6029 176.635 45.5313 170.82 50.6131C164.245 56.3497 153.99 59.2181 140.055 59.2181ZM140.055 44.0906C145.765 44.0906 149.956 42.4535 152.628 39.1791C154.776 36.5335 155.85 33.4163 155.85 29.8276C155.85 26.239 154.776 23.1349 152.628 20.5154C149.956 17.2149 145.765 15.5646 140.055 15.5646C134.344 15.5646 130.14 17.2149 127.442 20.5154C125.294 23.1349 124.22 26.239 124.22 29.8276C124.22 33.4163 125.294 36.5335 127.442 39.1791C130.14 42.4535 134.344 44.0906 140.055 44.0906ZM229.342 59.2181C215.406 59.2181 205.151 56.3497 198.576 50.6131C192.761 45.5313 189.853 38.616 189.853 29.8669C189.853 21.0917 192.761 14.1632 198.576 9.08147C205.151 3.34484 215.406 0.476523 229.342 0.476523C237.279 0.476523 243.88 1.36714 249.145 3.14838C254.41 4.92962 258.536 7.36572 261.522 10.4567C264.534 13.5215 266.59 17.0577 267.691 21.0655H242.387C239.741 17.4245 235.393 15.6039 229.342 15.6039C223.631 15.6039 219.427 17.2411 216.729 20.5154C214.581 23.1611 213.507 26.2783 213.507 29.8669C213.507 33.4556 214.581 36.5597 216.729 39.1791C219.427 42.4535 223.631 44.0906 229.342 44.0906C233.952 44.0906 237.41 43.6977 239.715 42.9119C242.046 42.0998 243.749 41.0521 244.823 39.7685H235.589V29.8669H267.691V58.0393H257.868L255.864 52.5777C249.603 57.0046 240.763 59.2181 229.342 59.2181ZM366.408 58H338.275L306.409 19.8475V58H282.755V1.61599H310.888L342.754 39.5721V1.61599H366.408V58ZM471.451 58H447.483L442.178 48.7664H406.619L401.315 58H377.347L413.417 1.65528H435.381L471.451 58ZM434.202 34.8177L424.419 17.7257L414.596 34.8177H434.202ZM520.11 58H482.39V1.61599H520.11C535.539 1.61599 546.632 3.77705 553.391 8.09917C558.839 11.5831 561.943 16.3243 562.703 22.3229C563.043 24.9161 563.214 27.4177 563.214 29.8276C563.214 32.2114 563.043 34.7129 562.703 37.3324C562.388 39.9257 561.524 42.4535 560.109 44.9158C558.695 47.3519 556.442 49.5522 553.351 51.5168C550.286 53.4814 546.069 55.0531 540.699 56.2319C535.356 57.4106 528.493 58 520.11 58ZM517.871 44.0513C529.894 44.0513 536.691 41.0128 538.263 34.9356C538.682 33.2329 538.892 31.5303 538.892 29.8276C538.892 28.0988 538.669 26.3961 538.224 24.7197C537.805 23.017 536.888 21.4846 535.473 20.1225C534.085 18.7342 531.99 17.634 529.187 16.822C526.384 15.9838 522.612 15.5646 517.871 15.5646H506.044V44.0513H517.871ZM613.052 59.2181C599.116 59.2181 588.861 56.3497 582.286 50.6131C576.471 45.5313 573.563 38.6029 573.563 29.8276C573.563 21.0786 576.471 14.1632 582.286 9.08147C588.861 3.34484 599.116 0.476523 613.052 0.476523C626.987 0.476523 637.242 3.34484 643.817 9.08147C649.632 14.1632 652.54 21.0786 652.54 29.8276C652.54 38.6029 649.632 45.5313 643.817 50.6131C637.242 56.3497 626.987 59.2181 613.052 59.2181ZM613.052 44.0906C618.762 44.0906 622.953 42.4535 625.625 39.1791C627.773 36.5335 628.847 33.4163 628.847 29.8276C628.847 26.239 627.773 23.1349 625.625 20.5154C622.953 17.2149 618.762 15.5646 613.052 15.5646C607.341 15.5646 603.137 17.2149 600.439 20.5154C598.291 23.1349 597.217 26.239 597.217 29.8276C597.217 33.4163 598.291 36.5335 600.439 39.1791C603.137 42.4535 607.341 44.0906 613.052 44.0906ZM742.967 58H720.609C719.588 56.5855 718.867 54.7781 718.448 52.5777C718.082 50.8751 717.532 49.2117 716.798 47.5876C716.065 45.9374 714.794 44.5752 712.987 43.5013C711.206 42.4011 708.547 41.8117 705.011 41.7331H689.647V58H665.994V1.61599H704.46C713.655 1.61599 721.068 2.31015 726.7 3.69847C732.358 5.06059 736.483 7.22165 739.077 10.1816C741.67 13.1154 742.967 16.953 742.967 21.6942C742.967 25.6496 742.063 28.9763 740.255 31.6744C738.474 34.3724 735.645 36.5073 731.768 38.079C735.514 39.6244 737.937 41.4843 739.037 43.6584C740.164 45.8064 740.858 48.177 741.12 50.7703C741.382 53.0754 741.997 55.4853 742.967 58ZM689.647 27.8237L703.164 27.7845C706.936 27.7845 709.909 27.6142 712.083 27.2737C714.257 26.9331 715.855 26.4747 716.877 25.8984C717.924 25.296 718.592 24.6411 718.881 23.9338C719.169 23.2004 719.313 22.4538 719.313 21.6942C719.313 20.9346 719.169 20.188 718.881 19.4546C718.592 18.7211 717.924 18.0662 716.877 17.49C715.855 16.8875 714.257 16.416 712.083 16.0754C709.909 15.7349 706.936 15.5646 703.164 15.5646H689.647V27.8237Z" fill="white"/>
<path d="M20.8662 50.6131L22.7524 48.4513L22.7485 48.4479L20.8662 50.6131ZM20.8662 9.08147L18.9849 6.91539L18.9783 6.92113L20.8662 9.08147ZM71.9065 3.34484L70.9516 6.05029L70.9634 6.05441L71.9065 3.34484ZM90.2558 22.1657V25.0347H93.864L93.0511 21.5193L90.2558 22.1657ZM65.384 22.1657L62.8903 23.5843L63.7154 25.0347H65.384V22.1657ZM39.0191 20.5547L41.2376 22.3739L41.2403 22.3705L39.0191 20.5547ZM39.0191 39.1791L41.2403 37.3633L41.2376 37.36L39.0191 39.1791ZM65.384 37.5289V34.6599H63.7104L62.8867 36.1167L65.384 37.5289ZM90.2558 37.5289L93.0519 38.1715L93.859 34.6599H90.2558V37.5289ZM71.9065 56.4283L72.8495 59.1379L72.8613 59.1338L71.9065 56.4283ZM51.6318 56.3491C37.9987 56.3491 28.5706 53.5278 22.7524 48.4513L18.98 52.7749C26.3115 59.1717 37.3938 62.087 51.6318 62.087V56.3491ZM22.7485 48.4479C17.6508 44.0162 15.0123 37.9399 15.0123 29.8669H9.27437C9.27437 39.3443 12.4511 47.0989 18.9839 52.7783L22.7485 48.4479ZM15.0123 29.8669C15.0123 21.7941 17.651 15.7013 22.754 11.2418L18.9783 6.92113C12.451 12.6252 9.27437 20.3893 9.27437 29.8669H15.0123ZM22.7475 11.2475C28.566 6.194 37.9962 3.3848 51.6318 3.3848V-2.35318C37.3963 -2.35318 26.3161 0.548062 18.9849 6.9154L22.7475 11.2475ZM51.6318 3.3848C59.6105 3.3848 66.0178 4.30892 70.9516 6.05027L72.8613 0.639408C67.1077 -1.39128 59.9986 -2.35318 51.6318 -2.35318V3.3848ZM70.9634 6.05441C75.9823 7.80118 79.6826 10.1312 82.2415 12.9392L86.4826 9.07433C83.1215 5.38606 78.5181 2.60814 72.8495 0.635265L70.9634 6.05441ZM82.2415 12.9392C84.8775 15.8318 86.6048 19.1111 87.4606 22.8121L93.0511 21.5193C91.9685 16.838 89.7666 12.678 86.4826 9.07433L82.2415 12.9392ZM90.2558 19.2967H65.384V25.0347H90.2558V19.2967ZM67.8777 20.7471C64.7134 15.1845 58.957 12.7349 51.6318 12.7349V18.4729C57.6659 18.4729 61.0777 20.3979 62.8903 23.5843L67.8777 20.7471ZM51.6318 12.7349C45.3721 12.7349 40.2114 14.5631 36.7978 18.7389L41.2403 22.3705C43.2229 19.9453 46.4706 18.4729 51.6318 18.4729V12.7349ZM36.8006 18.7356C34.2058 21.8999 32.9281 25.6574 32.9281 29.8669H38.6661C38.6661 26.8991 39.5364 24.4485 41.2376 22.3739L36.8006 18.7356ZM32.9281 29.8669C32.9281 34.0765 34.2058 37.834 36.8006 40.9983L41.2376 37.36C39.5364 35.2854 38.6661 32.8347 38.6661 29.8669H32.9281ZM36.7978 40.9949C40.2114 45.1707 45.3721 46.9989 51.6318 46.9989V41.2609C46.4706 41.2609 43.2229 39.7886 41.2403 37.3633L36.7978 40.9949ZM51.6318 46.9989C58.9646 46.9989 64.7205 44.5308 67.8814 38.9411L62.8867 36.1167C61.0705 39.3284 57.6583 41.2609 51.6318 41.2609V46.9989ZM65.384 40.3979H90.2558V34.6599H65.384V40.3979ZM87.4597 36.8863C86.6028 40.615 84.8745 43.9053 82.2415 46.7946L86.4826 50.6595C89.7695 47.0526 91.9704 42.8775 93.0519 38.1715L87.4597 36.8863ZM82.2415 46.7946C79.6794 49.6061 75.9746 51.9501 70.9516 53.7229L72.8613 59.1338C78.5258 57.1345 83.1247 54.3443 86.4826 50.6595L82.2415 46.7946ZM70.9634 53.7187C66.0253 55.4374 59.6135 56.3491 51.6318 56.3491V62.087C59.9956 62.087 67.1003 61.1389 72.8495 59.1379L70.9634 53.7187ZM109.289 50.6131L107.401 52.7734L107.403 52.7749L109.289 50.6131ZM109.289 9.08147L107.403 6.91967L107.401 6.92113L109.289 9.08147ZM170.82 9.08147L172.708 6.92113L172.706 6.91967L170.82 9.08147ZM170.82 50.6131L172.706 52.7749L172.708 52.7734L170.82 50.6131ZM152.628 39.1791L154.851 40.993L154.855 40.9875L152.628 39.1791ZM152.628 20.5154L150.398 22.3206L150.404 22.3276L150.409 22.3346L152.628 20.5154ZM127.442 20.5154L129.66 22.3346L129.663 22.3312L127.442 20.5154ZM127.442 39.1791L125.214 40.9875L125.221 40.9956L125.228 41.0036L127.442 39.1791ZM140.055 56.3491C126.421 56.3491 116.993 53.5278 111.175 48.4513L107.403 52.7749C114.734 59.1717 125.817 62.087 140.055 62.087V56.3491ZM111.177 48.4528C106.074 43.9933 103.435 37.9005 103.435 29.8276H97.6971C97.6971 39.3053 100.874 47.0694 107.401 52.7734L111.177 48.4528ZM103.435 29.8276C103.435 21.784 106.072 15.703 111.177 11.2418L107.401 6.92113C100.876 12.6235 97.6971 20.3732 97.6971 29.8276H103.435ZM111.175 11.2433C116.993 6.1668 126.421 3.34551 140.055 3.34551V-2.39247C125.817 -2.39247 114.734 0.522881 107.403 6.91967L111.175 11.2433ZM140.055 3.34551C153.688 3.34551 163.116 6.1668 168.934 11.2433L172.706 6.91967C165.375 0.522881 154.293 -2.39247 140.055 -2.39247V3.34551ZM168.932 11.2418C174.037 15.703 176.674 21.784 176.674 29.8276H182.412C182.412 20.3732 179.233 12.6235 172.708 6.92113L168.932 11.2418ZM176.674 29.8276C176.674 37.9005 174.035 43.9933 168.932 48.4528L172.708 52.7734C179.235 47.0694 182.412 39.3053 182.412 29.8276H176.674ZM168.934 48.4513C163.116 53.5278 153.688 56.3491 140.055 56.3491V62.087C154.293 62.087 165.375 59.1717 172.706 52.7749L168.934 48.4513ZM140.055 46.9596C146.305 46.9596 151.459 45.1498 154.851 40.993L150.405 37.3653C148.453 39.7572 145.225 41.2216 140.055 41.2216V46.9596ZM154.855 40.9875C157.441 37.802 158.719 34.0372 158.719 29.8276H152.981C152.981 32.7955 152.11 35.2649 150.401 37.3708L154.855 40.9875ZM158.719 29.8276C158.719 25.6181 157.441 21.8606 154.846 18.6963L150.409 22.3346C152.111 24.4092 152.981 26.8598 152.981 29.8276H158.719ZM154.858 18.7103C151.468 14.5233 146.312 12.6957 140.055 12.6957V18.4336C145.218 18.4336 148.444 19.9066 150.398 22.3206L154.858 18.7103ZM140.055 12.6957C133.795 12.6957 128.634 14.5238 125.221 18.6996L129.663 22.3312C131.646 19.906 134.893 18.4336 140.055 18.4336V12.6957ZM125.223 18.6963C122.629 21.8606 121.351 25.6181 121.351 29.8276H127.089C127.089 26.8598 127.959 24.4092 129.66 22.3346L125.223 18.6963ZM121.351 29.8276C121.351 34.0372 122.628 37.802 125.214 40.9875L129.669 37.3708C127.959 35.2649 127.089 32.7955 127.089 29.8276H121.351ZM125.228 41.0036C128.644 45.1492 133.802 46.9596 140.055 46.9596V41.2216C134.886 41.2216 131.636 39.7578 129.656 37.3547L125.228 41.0036ZM198.576 50.6131L196.688 52.7734L196.69 52.7749L198.576 50.6131ZM198.576 9.08147L196.69 6.91967L196.688 6.92113L198.576 9.08147ZM261.522 10.4567L259.458 12.4501L259.467 12.459L259.476 12.4678L261.522 10.4567ZM267.691 21.0655V23.9345H271.453L270.457 20.3061L267.691 21.0655ZM242.387 21.0655L240.066 22.752L240.925 23.9345H242.387V21.0655ZM216.729 20.5154L214.515 18.691L214.508 18.699L214.502 18.7071L216.729 20.5154ZM216.729 39.1791L214.51 40.9983L214.515 41.0036L216.729 39.1791ZM239.715 42.9119L240.64 45.6274L240.649 45.6243L240.658 45.6212L239.715 42.9119ZM244.823 39.7685L247.023 41.6096L250.964 36.8995H244.823V39.7685ZM235.589 39.7685H232.72V42.6375H235.589V39.7685ZM235.589 29.8669V26.9979H232.72V29.8669H235.589ZM267.691 29.8669H270.56V26.9979H267.691V29.8669ZM267.691 58.0393V60.9083H270.56V58.0393H267.691ZM257.868 58.0393L255.174 59.0275L255.864 60.9083H257.868V58.0393ZM255.864 52.5777L258.557 51.5895L257.267 48.072L254.207 50.2352L255.864 52.5777ZM229.342 56.3491C215.709 56.3491 206.28 53.5278 200.462 48.4513L196.69 52.7749C204.021 59.1717 215.104 62.087 229.342 62.087V56.3491ZM200.464 48.4528C195.359 43.9916 192.722 37.9105 192.722 29.8669H186.984C186.984 39.3214 190.163 47.0711 196.688 52.7734L200.464 48.4528ZM192.722 29.8669C192.722 21.7941 195.361 15.7013 200.464 11.2418L196.688 6.92113C190.161 12.6252 186.984 20.3893 186.984 29.8669H192.722ZM200.462 11.2433C206.28 6.1668 215.709 3.34551 229.342 3.34551V-2.39247C215.104 -2.39247 204.021 0.522881 196.69 6.91967L200.462 11.2433ZM229.342 3.34551C237.088 3.34551 243.354 4.21787 248.225 5.86606L250.064 0.430698C244.406 -1.48359 237.469 -2.39247 229.342 -2.39247V3.34551ZM248.225 5.86606C253.18 7.54225 256.87 9.77061 259.458 12.4501L263.585 8.46328C260.201 4.96083 255.64 2.31698 250.064 0.430698L248.225 5.86606ZM259.476 12.4678C262.157 15.196 263.958 18.3055 264.924 21.825L270.457 20.3061C269.223 15.81 266.911 11.8469 263.568 8.44557L259.476 12.4678ZM267.691 18.1965H242.387V23.9345H267.691V18.1965ZM244.708 19.3791C241.348 14.7549 235.967 12.7349 229.342 12.7349V18.4729C234.818 18.4729 238.134 20.0941 240.066 22.752L244.708 19.3791ZM229.342 12.7349C223.089 12.7349 217.931 14.5454 214.515 18.691L218.943 22.3399C220.923 19.9368 224.173 18.4729 229.342 18.4729V12.7349ZM214.502 18.7071C211.915 21.8926 210.638 25.6574 210.638 29.8669H216.376C216.376 26.8991 217.247 24.4296 218.956 22.3238L214.502 18.7071ZM210.638 29.8669C210.638 34.0765 211.916 37.834 214.51 40.9983L218.947 37.36C217.246 35.2854 216.376 32.8347 216.376 29.8669H210.638ZM214.515 41.0036C217.931 45.1492 223.089 46.9596 229.342 46.9596V41.2216C224.173 41.2216 220.923 39.7578 218.943 37.3547L214.515 41.0036ZM229.342 46.9596C234.038 46.9596 237.879 46.5689 240.64 45.6274L238.789 40.1963C236.941 40.8265 233.866 41.2216 229.342 41.2216V46.9596ZM240.658 45.6212C243.262 44.7144 245.494 43.4365 247.023 41.6096L242.622 37.9274C242.003 38.6677 240.83 39.4853 238.771 40.2025L240.658 45.6212ZM244.823 36.8995H235.589V42.6375H244.823V36.8995ZM238.458 39.7685V29.8669H232.72V39.7685H238.458ZM235.589 32.7359H267.691V26.9979H235.589V32.7359ZM264.822 29.8669V58.0393H270.56V29.8669H264.822ZM267.691 55.1703H257.868V60.9083H267.691V55.1703ZM260.561 57.0511L258.557 51.5895L253.17 53.5659L255.174 59.0275L260.561 57.0511ZM254.207 50.2352C248.616 54.1892 240.444 56.3491 229.342 56.3491V62.087C241.081 62.087 250.591 59.82 257.52 54.9202L254.207 50.2352ZM366.408 58V60.869H369.277V58H366.408ZM338.275 58L336.073 59.8391L336.933 60.869H338.275V58ZM306.409 19.8475L308.611 18.0083L303.54 11.9369V19.8475H306.409ZM306.409 58V60.869H309.278V58H306.409ZM282.755 58H279.886V60.869H282.755V58ZM282.755 1.61599V-1.253H279.886V1.61599H282.755ZM310.888 1.61599L313.086 -0.228735L312.226 -1.253H310.888V1.61599ZM342.754 39.5721L340.557 41.4168L345.623 47.4513V39.5721H342.754ZM342.754 1.61599V-1.253H339.885V1.61599H342.754ZM366.408 1.61599H369.277V-1.253H366.408V1.61599ZM366.408 55.131H338.275V60.869H366.408V55.131ZM340.477 56.1609L308.611 18.0083L304.207 21.6866L336.073 59.8391L340.477 56.1609ZM303.54 19.8475V58H309.278V19.8475H303.54ZM306.409 55.131H282.755V60.869H306.409V55.131ZM285.624 58V1.61599H279.886V58H285.624ZM282.755 4.48498H310.888V-1.253H282.755V4.48498ZM308.691 3.46072L340.557 41.4168L344.951 37.7273L313.086 -0.228735L308.691 3.46072ZM345.623 39.5721V1.61599H339.885V39.5721H345.623ZM342.754 4.48498H366.408V-1.253H342.754V4.48498ZM363.539 1.61599V58H369.277V1.61599H363.539ZM471.451 58V60.869H476.694L473.867 56.4532L471.451 58ZM447.483 58L444.995 59.4291L445.822 60.869H447.483V58ZM442.178 48.7664L444.666 47.3373L443.839 45.8974H442.178V48.7664ZM406.619 48.7664V45.8974H404.959L404.132 47.3373L406.619 48.7664ZM401.315 58V60.869H402.975L403.803 59.4291L401.315 58ZM377.347 58L374.93 56.4532L372.104 60.869H377.347V58ZM413.417 1.65528V-1.21371H411.847L411 0.108456L413.417 1.65528ZM435.381 1.65528L437.797 0.108456L436.951 -1.21371H435.381V1.65528ZM434.202 34.8177V37.6867H439.15L436.692 33.3925L434.202 34.8177ZM424.419 17.7257L426.908 16.3004L424.423 11.9593L421.931 16.2961L424.419 17.7257ZM414.596 34.8177L412.108 33.3882L409.638 37.6867H414.596V34.8177ZM471.451 55.131H447.483V60.869H471.451V55.131ZM449.971 56.5709L444.666 47.3373L439.691 50.1955L444.995 59.4291L449.971 56.5709ZM442.178 45.8974H406.619V51.6354H442.178V45.8974ZM404.132 47.3373L398.827 56.5709L403.803 59.4291L409.107 50.1955L404.132 47.3373ZM401.315 55.131H377.347V60.869H401.315V55.131ZM379.763 59.5468L415.833 3.20211L411 0.108456L374.93 56.4532L379.763 59.5468ZM413.417 4.52427H435.381V-1.21371H413.417V4.52427ZM432.965 3.20211L469.035 59.5468L473.867 56.4532L437.797 0.108456L432.965 3.20211ZM436.692 33.3925L426.908 16.3004L421.929 19.151L431.712 36.243L436.692 33.3925ZM421.931 16.2961L412.108 33.3882L417.083 36.2473L426.906 19.1553L421.931 16.2961ZM414.596 37.6867H434.202V31.9487H414.596V37.6867ZM482.39 58H479.521V60.869H482.39V58ZM482.39 1.61599V-1.253H479.521V1.61599H482.39ZM553.391 8.09917L551.845 10.5161L551.845 10.5163L553.391 8.09917ZM562.703 22.3229L559.856 22.6833L559.858 22.6964L562.703 22.3229ZM562.703 37.3324L559.858 36.9626L559.856 36.9749L559.855 36.9872L562.703 37.3324ZM560.109 44.9158L562.591 46.3564L562.597 46.3449L560.109 44.9158ZM553.351 51.5168L551.812 49.0955L551.803 49.1015L553.351 51.5168ZM540.699 56.2319L540.084 53.4296L540.081 53.4302L540.699 56.2319ZM538.263 34.9356L541.041 35.6539L541.045 35.6377L541.049 35.6213L538.263 34.9356ZM538.224 24.7197L535.438 25.4054L535.444 25.4309L535.451 25.4562L538.224 24.7197ZM535.473 20.1225L533.445 22.1512L533.464 22.1703L533.483 22.1891L535.473 20.1225ZM529.187 16.822L528.365 19.5707L528.376 19.5742L528.388 19.5777L529.187 16.822ZM506.044 15.5646V12.6957H503.175V15.5646H506.044ZM506.044 44.0513H503.175V46.9203H506.044V44.0513ZM520.11 55.131H482.39V60.869H520.11V55.131ZM485.259 58V1.61599H479.521V58H485.259ZM482.39 4.48498H520.11V-1.253H482.39V4.48498ZM520.11 4.48498C535.415 4.48498 545.808 6.65555 551.845 10.5161L554.936 5.68219C547.456 0.898551 535.662 -1.253 520.11 -1.253V4.48498ZM551.845 10.5163C556.633 13.578 559.212 17.5942 559.857 22.6833L565.549 21.9624C564.674 15.0544 561.045 9.58816 554.936 5.68207L551.845 10.5163ZM559.858 22.6964C560.184 25.1762 560.345 27.5527 560.345 29.8276H566.083C566.083 27.2828 565.903 24.6561 565.547 21.9493L559.858 22.6964ZM560.345 29.8276C560.345 32.0753 560.184 34.4528 559.858 36.9626L565.548 37.7023C565.903 34.9731 566.083 32.3474 566.083 29.8276H560.345ZM559.855 36.9872C559.59 39.1665 558.862 41.3286 557.622 43.4867L562.597 46.3449C564.186 43.5784 565.186 40.6849 565.551 37.6776L559.855 36.9872ZM557.628 43.4751C556.504 45.4123 554.628 47.306 551.812 49.0955L554.89 53.9381C558.257 51.7984 560.886 49.2914 562.591 46.3564L557.628 43.4751ZM551.803 49.1015C549.131 50.8145 545.274 52.2903 540.084 53.4296L541.314 59.0341C546.864 57.8159 551.442 56.1484 554.9 53.9322L551.803 49.1015ZM540.081 53.4302C535.017 54.5472 528.382 55.131 520.11 55.131V60.869C528.603 60.869 535.694 60.274 541.317 59.0335L540.081 53.4302ZM517.871 46.9203C524.067 46.9203 529.232 46.1461 533.157 44.3916C537.187 42.5901 539.995 39.6988 541.041 35.6539L535.486 34.2173C534.96 36.2496 533.583 37.9161 530.815 39.1532C527.943 40.4372 523.698 41.1824 517.871 41.1824V46.9203ZM541.049 35.6213C541.522 33.701 541.761 31.7682 541.761 29.8276H536.023C536.023 31.2924 535.843 32.7649 535.477 34.2499L541.049 35.6213ZM541.761 29.8276C541.761 27.8493 541.506 25.8991 540.997 23.9831L535.451 25.4562C535.833 26.8932 536.023 28.3483 536.023 29.8276H541.761ZM541.01 24.0339C540.446 21.7436 539.22 19.7475 537.463 18.0559L533.483 22.1891C534.556 23.2218 535.164 24.2904 535.438 25.4054L541.01 24.0339ZM537.502 18.0938C535.645 16.2367 533.044 14.9524 529.985 14.0663L528.388 19.5777C530.935 20.3156 532.525 21.2317 533.445 22.1512L537.502 18.0938ZM530.009 14.0733C526.826 13.1215 522.74 12.6957 517.871 12.6957V18.4336C522.483 18.4336 525.942 18.8461 528.365 19.5707L530.009 14.0733ZM517.871 12.6957H506.044V18.4336H517.871V12.6957ZM503.175 15.5646V44.0513H508.913V15.5646H503.175ZM506.044 46.9203H517.871V41.1824H506.044V46.9203ZM582.286 50.6131L580.398 52.7734L580.4 52.7749L582.286 50.6131ZM582.286 9.08147L580.4 6.91967L580.398 6.92113L582.286 9.08147ZM643.817 9.08147L645.705 6.92113L645.703 6.91967L643.817 9.08147ZM643.817 50.6131L645.703 52.7749L645.705 52.7734L643.817 50.6131ZM625.625 39.1791L627.848 40.993L627.852 40.9875L625.625 39.1791ZM625.625 20.5154L623.395 22.3206L623.401 22.3276L623.406 22.3346L625.625 20.5154ZM600.439 20.5154L602.657 22.3346L602.66 22.3312L600.439 20.5154ZM600.439 39.1791L598.211 40.9875L598.218 40.9956L598.225 41.0036L600.439 39.1791ZM613.052 56.3491C599.418 56.3491 589.99 53.5278 584.172 48.4513L580.4 52.7749C587.731 59.1717 598.814 62.087 613.052 62.087V56.3491ZM584.174 48.4528C579.071 43.9933 576.432 37.9005 576.432 29.8276H570.694C570.694 39.3053 573.871 47.0694 580.398 52.7734L584.174 48.4528ZM576.432 29.8276C576.432 21.784 579.069 15.703 584.174 11.2418L580.398 6.92113C573.873 12.6235 570.694 20.3732 570.694 29.8276H576.432ZM584.172 11.2433C589.99 6.1668 599.418 3.34551 613.052 3.34551V-2.39247C598.814 -2.39247 587.731 0.522881 580.4 6.91967L584.172 11.2433ZM613.052 3.34551C626.685 3.34551 636.113 6.1668 641.931 11.2433L645.703 6.91967C638.372 0.522881 627.29 -2.39247 613.052 -2.39247V3.34551ZM641.929 11.2418C647.034 15.703 649.671 21.784 649.671 29.8276H655.409C655.409 20.3732 652.23 12.6235 645.705 6.92113L641.929 11.2418ZM649.671 29.8276C649.671 37.9005 647.032 43.9933 641.929 48.4528L645.705 52.7734C652.232 47.0694 655.409 39.3053 655.409 29.8276H649.671ZM641.931 48.4513C636.113 53.5278 626.685 56.3491 613.052 56.3491V62.087C627.29 62.087 638.372 59.1717 645.703 52.7749L641.931 48.4513ZM613.052 46.9596C619.302 46.9596 624.456 45.1498 627.848 40.993L623.402 37.3653C621.45 39.7572 618.222 41.2216 613.052 41.2216V46.9596ZM627.852 40.9875C630.439 37.802 631.716 34.0372 631.716 29.8276H625.978C625.978 32.7955 625.107 35.2649 623.398 37.3708L627.852 40.9875ZM631.716 29.8276C631.716 25.6181 630.438 21.8606 627.843 18.6963L623.406 22.3346C625.108 24.4092 625.978 26.8598 625.978 29.8276H631.716ZM627.855 18.7103C624.465 14.5233 619.309 12.6957 613.052 12.6957V18.4336C618.215 18.4336 621.441 19.9066 623.395 22.3206L627.855 18.7103ZM613.052 12.6957C606.792 12.6957 601.631 14.5238 598.218 18.6996L602.66 22.3312C604.643 19.906 607.89 18.4336 613.052 18.4336V12.6957ZM598.22 18.6963C595.626 21.8606 594.348 25.6181 594.348 29.8276H600.086C600.086 26.8598 600.956 24.4092 602.657 22.3346L598.22 18.6963ZM594.348 29.8276C594.348 34.0372 595.625 37.802 598.211 40.9875L602.666 37.3708C600.956 35.2649 600.086 32.7955 600.086 29.8276H594.348ZM598.225 41.0036C601.641 45.1492 606.799 46.9596 613.052 46.9596V41.2216C607.883 41.2216 604.633 39.7578 602.653 37.3547L598.225 41.0036ZM742.967 58V60.869H747.147L745.644 56.9682L742.967 58ZM720.609 58L718.284 59.6798L719.142 60.869H720.609V58ZM718.448 52.5777L721.267 52.0409L721.26 52.0072L721.253 51.9736L718.448 52.5777ZM716.798 47.5876L714.176 48.7528L714.18 48.7607L714.183 48.7685L716.798 47.5876ZM712.987 43.5013L711.479 45.9422L711.5 45.9551L711.521 45.9677L712.987 43.5013ZM705.011 41.7331L705.074 38.8648L705.042 38.8641H705.011V41.7331ZM689.647 41.7331V38.8641H686.778V41.7331H689.647ZM689.647 58V60.869H692.516V58H689.647ZM665.994 58H663.125V60.869H665.994V58ZM665.994 1.61599V-1.253H663.125V1.61599H665.994ZM726.7 3.69847L726.013 6.48407L726.021 6.48594L726.028 6.48777L726.7 3.69847ZM739.077 10.1816L736.919 12.0723L736.927 12.0817L739.077 10.1816ZM740.255 31.6744L737.872 30.0776L737.866 30.0856L737.861 30.0937L740.255 31.6744ZM731.768 38.079L730.69 35.4202L724.19 38.0556L730.674 40.7311L731.768 38.079ZM739.037 43.6584L736.477 44.9538L736.487 44.9724L736.497 44.9908L739.037 43.6584ZM741.12 50.7703L738.265 51.0586L738.267 51.0764L738.269 51.0942L741.12 50.7703ZM689.647 27.8237H686.778V30.7011L689.656 30.6927L689.647 27.8237ZM703.164 27.7845L703.164 24.9155L703.155 24.9155L703.164 27.7845ZM716.877 25.8984L718.286 28.3973L718.297 28.3915L718.307 28.3856L716.877 25.8984ZM718.881 23.9338L721.538 25.0163L721.544 24.9996L721.551 24.9829L718.881 23.9338ZM716.877 17.49L715.419 19.9612L715.456 19.9831L715.494 20.0038L716.877 17.49ZM689.647 15.5646V12.6957H686.778V15.5646H689.647ZM742.967 55.131H720.609V60.869H742.967V55.131ZM722.935 56.3202C722.219 55.3283 721.629 53.9416 721.267 52.0409L715.63 53.1145C716.106 55.6145 716.957 57.8427 718.284 59.6798L722.935 56.3202ZM721.253 51.9736C720.843 50.068 720.228 48.2116 719.413 46.4068L714.183 48.7685C714.835 50.2118 715.321 51.6821 715.644 53.1818L721.253 51.9736ZM719.42 46.4224C718.407 44.1439 716.684 42.361 714.452 41.0348L711.521 45.9677C712.904 46.7895 713.722 47.7308 714.176 48.7528L719.42 46.4224ZM714.494 41.0603C712.074 39.5653 708.81 38.9479 705.074 38.8648L704.947 44.6014C708.283 44.6755 710.337 45.2368 711.479 45.9422L714.494 41.0603ZM705.011 38.8641H689.647V44.6021H705.011V38.8641ZM686.778 41.7331V58H692.516V41.7331H686.778ZM689.647 55.131H665.994V60.869H689.647V55.131ZM668.863 58V1.61599H663.125V58H668.863ZM665.994 4.48498H704.46V-1.253H665.994V4.48498ZM704.46 4.48498C713.541 4.48498 720.697 5.17361 726.013 6.48407L727.386 0.912865C721.439 -0.553315 713.768 -1.253 704.46 -1.253V4.48498ZM726.028 6.48777C731.372 7.7742 734.863 9.72525 736.919 12.0722L741.235 8.29105C738.104 4.71804 733.344 2.34698 727.371 0.909166L726.028 6.48777ZM736.927 12.0817C738.964 14.3858 740.098 17.4982 740.098 21.6942H745.836C745.836 16.4077 744.376 11.8451 741.226 8.28156L736.927 12.0817ZM740.098 21.6942C740.098 25.2063 739.3 27.9463 737.872 30.0776L742.639 33.2711C744.826 30.0064 745.836 26.0929 745.836 21.6942H740.098ZM737.861 30.0937C736.482 32.1831 734.187 34.0028 730.69 35.4202L732.846 40.7378C737.104 39.0118 740.467 36.5617 742.65 33.255L737.861 30.0937ZM730.674 40.7311C734.175 42.1755 735.836 43.6863 736.477 44.9538L741.597 42.363C740.038 39.2822 736.853 37.0734 732.863 35.4268L730.674 40.7311ZM736.497 44.9908C737.44 46.7904 738.038 48.8027 738.265 51.0586L743.974 50.4819C743.678 47.5513 742.887 44.8224 741.578 42.326L736.497 44.9908ZM738.269 51.0942C738.563 53.677 739.246 56.3252 740.29 59.0318L745.644 56.9682C744.748 54.6454 744.201 52.4738 743.971 50.4463L738.269 51.0942ZM689.656 30.6927L703.172 30.6534L703.155 24.9155L689.639 24.9548L689.656 30.6927ZM703.164 30.6534C706.996 30.6534 710.139 30.4822 712.527 30.1081L711.639 24.4392C709.679 24.7462 706.876 24.9155 703.164 24.9155V30.6534ZM712.527 30.1081C714.797 29.7526 716.807 29.2315 718.286 28.3973L715.467 23.3996C714.903 23.7179 713.718 24.1137 711.639 24.4392L712.527 30.1081ZM718.307 28.3856C719.607 27.638 720.904 26.5723 721.538 25.0163L716.224 22.8514C716.257 22.7701 716.27 22.7936 716.155 22.9068C716.036 23.0231 715.818 23.1979 715.447 23.4113L718.307 28.3856ZM721.551 24.9829C721.965 23.928 722.182 22.8263 722.182 21.6942H716.444C716.444 22.0814 716.372 22.4728 716.21 22.8848L721.551 24.9829ZM722.182 21.6942C722.182 20.5621 721.965 19.4604 721.551 18.4055L716.21 20.5036C716.372 20.9156 716.444 21.307 716.444 21.6942H722.182ZM721.551 18.4055C720.919 16.7967 719.603 15.7152 718.259 14.9761L715.494 20.0038C715.849 20.1992 716.051 20.3599 716.155 20.462C716.254 20.5587 716.239 20.5767 716.21 20.5036L721.551 18.4055ZM718.334 15.0187C716.838 14.1362 714.806 13.598 712.527 13.241L711.639 18.9099C713.708 19.234 714.873 19.6388 715.419 19.9612L718.334 15.0187ZM712.527 13.241C710.139 12.8669 706.996 12.6957 703.164 12.6957V18.4336C706.876 18.4336 709.679 18.6029 711.639 18.9099L712.527 13.241ZM703.164 12.6957H689.647V18.4336H703.164V12.6957ZM686.778 15.5646V27.8237H692.516V15.5646H686.778Z" fill="black" mask="url(#path-1-outside-1_2_4)"/>
</g>
<defs>
<filter id="filter0_d_2_4" x="0.667395" y="0.476524" width="753.775" height="81.6934" filterUnits="userSpaceOnUse" color-interpolation-filters="sRGB">
<feFlood flood-opacity="0" result="BackgroundImageFix"/>
<feColorMatrix in="SourceAlpha" type="matrix" values="0 0 0 0 0 0 0 0 0 0 0 0 0 0 0 0 0 0 127 0" result="hardAlpha"/>
<feOffset dy="11.476"/>
<feGaussianBlur stdDeviation="5.73798"/>
<feComposite in2="hardAlpha" operator="out"/>
<feColorMatrix type="matrix" values="0 0 0 0 0 0 0 0 0 0 0 0 0 0 0 0 0 0 0.25 0"/>
<feBlend mode="normal" in2="BackgroundImageFix" result="effect1_dropShadow_2_4"/>
<feBlend mode="normal" in="SourceGraphic" in2="effect1_dropShadow_2_4" result="shape"/>
</filter>
</defs>
</svg>
