<?xml version="1.0"?>
<svg xmlns="http://www.w3.org/2000/svg" height="222.39999" viewBox="0 0 371.64001 222.39999" width="371.64001" fill="#f7f7f9"><path d="m185.82 165.2c-104.2 0-185.82-36.29-185.82-82.61s81.62-82.59 185.82-82.59 185.82 36.28 185.82 82.61-81.62 82.59-185.82 82.59zm0-153.22c-94.22 0-173.82 32.33-173.82 70.61s79.6 70.61 173.82 70.61 173.82-32.34 173.82-70.61-79.6-70.59-173.82-70.59z" fill="#f7f7f9"/><path d="m331.82 130.28a6 6 0 0 1 -6-6c0-13.85-14.26-27.87-39.11-38.46-26.89-11.43-62.69-17.73-100.89-17.73s-74 6.3-100.86 17.73c-24.85 10.59-39.14 24.61-39.14 38.46a6 6 0 0 1 -12 0c0-38.24 66.76-68.19 152-68.19s152 30 152 68.19a6 6 0 0 1 -6 6z" fill="#f7f7f9"/><path d="m185.82 222.4c-104.2 0-185.82-36.28-185.82-82.61v-57.18a6 6 0 0 1 12 0v57.18c0 38.28 79.6 70.61 173.82 70.61s173.82-32.33 173.82-70.61v-57.18a6 6 0 0 1 12 0v57.18c0 46.33-81.62 82.61-185.82 82.61z" fill="#f7f7f9"/></svg>
